<svg viewBox="-16 -32 880 192" width="880" height="192" xmlns="http://www.w3.org/2000/svg"><desc>Generated with https://github.com/Platane/snk</desc><style>:root{--cb:#1b1f230a;--cs:purple;--ce:#ebedf0;--c0:#ebedf0;--c1:#9be9a8;--c2:#40c463;--c3:#30a14e;--c4:#216e39}.c{shape-rendering:geometricPrecision;fill:var(--ce);stroke-width:1px;stroke:var(--cb);animation:none 37500ms linear infinite;width:12px;height:12px}@keyframes c0{5.06%{fill:var(--c1)}5.08%,100%{fill:var(--ce)}}.c.c0{fill:var(--c1);animation-name:c0}@keyframes c1{74.66%{fill:var(--c4)}74.68%,100%{fill:var(--ce)}}.c.c1{fill:var(--c4);animation-name:c1}@keyframes c2{44.52%{fill:var(--c1)}44.54%,100%{fill:var(--ce)}}.c.c2{fill:var(--c1);animation-name:c2}@keyframes c3{48.52%{fill:var(--c2)}48.54%,100%{fill:var(--ce)}}.c.c3{fill:var(--c2);animation-name:c3}@keyframes c4{48.79%{fill:var(--c2)}48.81%,100%{fill:var(--ce)}}.c.c4{fill:var(--c2);animation-name:c4}@keyframes c5{73.86%{fill:var(--c4)}73.88%,100%{fill:var(--ce)}}.c.c5{fill:var(--c4);animation-name:c5}@keyframes c6{47.46%{fill:var(--c2)}47.48%,100%{fill:var(--ce)}}.c.c6{fill:var(--c2);animation-name:c6}@keyframes c7{44.79%{fill:var(--c2)}44.81%,100%{fill:var(--ce)}}.c.c7{fill:var(--c2);animation-name:c7}@keyframes c8{49.06%{fill:var(--c2)}49.08%,100%{fill:var(--ce)}}.c.c8{fill:var(--c2);animation-name:c8}@keyframes c9{53.59%{fill:var(--c2)}53.61%,100%{fill:var(--ce)}}.c.c9{fill:var(--c2);animation-name:c9}@keyframes ca{45.32%{fill:var(--c2)}45.34%,100%{fill:var(--ce)}}.c.ca{fill:var(--c2);animation-name:ca}@keyframes cb{46.66%{fill:var(--c2)}46.68%,100%{fill:var(--ce)}}.c.cb{fill:var(--c2);animation-name:cb}@keyframes cc{46.92%{fill:var(--c2)}46.94%,100%{fill:var(--ce)}}.c.cc{fill:var(--c2);animation-name:cc}@keyframes cd{10.12%{fill:var(--c1)}10.14%,100%{fill:var(--ce)}}.c.cd{fill:var(--c1);animation-name:cd}@keyframes ce{76.26%{fill:var(--c4)}76.28%,100%{fill:var(--ce)}}.c.ce{fill:var(--c4);animation-name:ce}@keyframes cf{72.79%{fill:var(--c3)}72.81%,100%{fill:var(--ce)}}.c.cf{fill:var(--c3);animation-name:cf}@keyframes cg{46.39%{fill:var(--c2)}46.41%,100%{fill:var(--ce)}}.c.cg{fill:var(--c2);animation-name:cg}@keyframes ch{46.12%{fill:var(--c2)}46.14%,100%{fill:var(--ce)}}.c.ch{fill:var(--c2);animation-name:ch}@keyframes ci{45.86%{fill:var(--c2)}45.88%,100%{fill:var(--ce)}}.c.ci{fill:var(--c2);animation-name:ci}@keyframes cj{50.39%{fill:var(--c2)}50.41%,100%{fill:var(--ce)}}.c.cj{fill:var(--c2);animation-name:cj}@keyframes ck{50.12%{fill:var(--c2)}50.14%,100%{fill:var(--ce)}}.c.ck{fill:var(--c2);animation-name:ck}@keyframes cl{41.32%{fill:var(--c1)}41.34%,100%{fill:var(--ce)}}.c.cl{fill:var(--c1);animation-name:cl}@keyframes cm{51.72%{fill:var(--c2)}51.74%,100%{fill:var(--ce)}}.c.cm{fill:var(--c2);animation-name:cm}@keyframes cn{18.39%{fill:var(--c1)}18.41%,100%{fill:var(--ce)}}.c.cn{fill:var(--c1);animation-name:cn}@keyframes co{18.66%{fill:var(--c1)}18.68%,100%{fill:var(--ce)}}.c.co{fill:var(--c1);animation-name:co}@keyframes cp{39.46%{fill:var(--c2)}39.48%,100%{fill:var(--ce)}}.c.cp{fill:var(--c2);animation-name:cp}@keyframes cq{39.19%{fill:var(--c1)}39.21%,100%{fill:var(--ce)}}.c.cq{fill:var(--c1);animation-name:cq}@keyframes cr{41.59%{fill:var(--c2)}41.61%,100%{fill:var(--ce)}}.c.cr{fill:var(--c2);animation-name:cr}@keyframes cs{51.99%{fill:var(--c2)}52.01%,100%{fill:var(--ce)}}.c.cs{fill:var(--c2);animation-name:cs}@keyframes ct{18.92%{fill:var(--c1)}18.94%,100%{fill:var(--ce)}}.c.ct{fill:var(--c1);animation-name:ct}@keyframes cu{19.19%{fill:var(--c1)}19.21%,100%{fill:var(--ce)}}.c.cu{fill:var(--c1);animation-name:cu}@keyframes cv{12.52%{fill:var(--c1)}12.54%,100%{fill:var(--ce)}}.c.cv{fill:var(--c1);animation-name:cv}@keyframes cw{17.59%{fill:var(--c1)}17.61%,100%{fill:var(--ce)}}.c.cw{fill:var(--c1);animation-name:cw}@keyframes cx{14.92%{fill:var(--c1)}14.94%,100%{fill:var(--ce)}}.c.cx{fill:var(--c1);animation-name:cx}@keyframes cy{14.66%{fill:var(--c1)}14.68%,100%{fill:var(--ce)}}.c.cy{fill:var(--c1);animation-name:cy}@keyframes cz{14.39%{fill:var(--c1)}14.41%,100%{fill:var(--ce)}}.c.cz{fill:var(--c1);animation-name:cz}@keyframes c10{13.59%{fill:var(--c1)}13.61%,100%{fill:var(--ce)}}.c.c10{fill:var(--c1);animation-name:c10}@keyframes c11{13.32%{fill:var(--c1)}13.34%,100%{fill:var(--ce)}}.c.c11{fill:var(--c1);animation-name:c11}@keyframes c12{15.46%{fill:var(--c1)}15.48%,100%{fill:var(--ce)}}.c.c12{fill:var(--c1);animation-name:c12}@keyframes c13{16.26%{fill:var(--c1)}16.28%,100%{fill:var(--ce)}}.c.c13{fill:var(--c1);animation-name:c13}@keyframes c14{59.72%{fill:var(--c2)}59.74%,100%{fill:var(--ce)}}.c.c14{fill:var(--c2);animation-name:c14}@keyframes c15{58.12%{fill:var(--c2)}58.14%,100%{fill:var(--ce)}}.c.c15{fill:var(--c2);animation-name:c15}@keyframes c16{81.06%{fill:var(--c4)}81.08%,100%{fill:var(--ce)}}.c.c16{fill:var(--c4);animation-name:c16}@keyframes c17{60.52%{fill:var(--c2)}60.54%,100%{fill:var(--ce)}}.c.c17{fill:var(--c2);animation-name:c17}@keyframes c18{82.39%{fill:var(--c4)}82.41%,100%{fill:var(--ce)}}.c.c18{fill:var(--c4);animation-name:c18}@keyframes c19{23.46%{fill:var(--c1)}23.48%,100%{fill:var(--ce)}}.c.c19{fill:var(--c1);animation-name:c19}@keyframes c1a{23.72%{fill:var(--c1)}23.74%,100%{fill:var(--ce)}}.c.c1a{fill:var(--c1);animation-name:c1a}@keyframes c1b{66.92%{fill:var(--c3)}66.94%,100%{fill:var(--ce)}}.c.c1b{fill:var(--c3);animation-name:c1b}@keyframes c1c{84.26%{fill:var(--c4)}84.28%,100%{fill:var(--ce)}}.c.c1c{fill:var(--c4);animation-name:c1c}@keyframes c1d{84.79%{fill:var(--c4)}84.81%,100%{fill:var(--ce)}}.c.c1d{fill:var(--c4);animation-name:c1d}@keyframes c1e{85.06%{fill:var(--c4)}85.08%,100%{fill:var(--ce)}}.c.c1e{fill:var(--c4);animation-name:c1e}@keyframes c1f{62.39%{fill:var(--c2)}62.41%,100%{fill:var(--ce)}}.c.c1f{fill:var(--c2);animation-name:c1f}@keyframes c1g{28.52%{fill:var(--c1)}28.54%,100%{fill:var(--ce)}}.c.c1g{fill:var(--c1);animation-name:c1g}@keyframes c1h{64.52%{fill:var(--c2)}64.54%,100%{fill:var(--ce)}}.c.c1h{fill:var(--c2);animation-name:c1h}@keyframes c1i{64.79%{fill:var(--c3)}64.81%,100%{fill:var(--ce)}}.c.c1i{fill:var(--c3);animation-name:c1i}@keyframes c1j{63.46%{fill:var(--c2)}63.48%,100%{fill:var(--ce)}}.c.c1j{fill:var(--c2);animation-name:c1j}@keyframes c1k{31.72%{fill:var(--c2)}31.74%,100%{fill:var(--ce)}}.c.c1k{fill:var(--c2);animation-name:c1k}@keyframes c1l{31.46%{fill:var(--c1)}31.48%,100%{fill:var(--ce)}}.c.c1l{fill:var(--c1);animation-name:c1l}@keyframes c1m{62.66%{fill:var(--c2)}62.68%,100%{fill:var(--ce)}}.c.c1m{fill:var(--c2);animation-name:c1m}@keyframes c1n{28.26%{fill:var(--c1)}28.28%,100%{fill:var(--ce)}}.c.c1n{fill:var(--c1);animation-name:c1n}@keyframes c1o{64.26%{fill:var(--c2)}64.28%,100%{fill:var(--ce)}}.c.c1o{fill:var(--c2);animation-name:c1o}@keyframes c1p{27.19%{fill:var(--c1)}27.21%,100%{fill:var(--ce)}}.c.c1p{fill:var(--c1);animation-name:c1p}@keyframes c1q{26.92%{fill:var(--c1)}26.94%,100%{fill:var(--ce)}}.c.c1q{fill:var(--c1);animation-name:c1q}@keyframes c1r{26.66%{fill:var(--c1)}26.68%,100%{fill:var(--ce)}}.c.c1r{fill:var(--c1);animation-name:c1r}@keyframes c1s{26.39%{fill:var(--c1)}26.41%,100%{fill:var(--ce)}}.c.c1s{fill:var(--c1);animation-name:c1s}@keyframes c1t{26.12%{fill:var(--c1)}26.14%,100%{fill:var(--ce)}}.c.c1t{fill:var(--c1);animation-name:c1t}.u{transform-origin:0 0;transform:scale(0,1);animation:none linear 37500ms infinite}@keyframes u0{5.06%{transform:scale(0.000,1)}5.08%,10.12%{transform:scale(0.040,1)}10.14%,12.52%{transform:scale(0.080,1)}12.54%,13.32%{transform:scale(0.120,1)}13.34%,13.59%{transform:scale(0.160,1)}13.61%,14.39%{transform:scale(0.200,1)}14.41%,14.66%{transform:scale(0.240,1)}14.68%,14.92%{transform:scale(0.280,1)}14.94%,15.46%{transform:scale(0.320,1)}15.48%,16.26%{transform:scale(0.360,1)}16.28%,17.59%{transform:scale(0.400,1)}17.61%,18.39%{transform:scale(0.440,1)}18.41%,18.66%{transform:scale(0.480,1)}18.68%,18.92%{transform:scale(0.520,1)}18.94%,19.19%{transform:scale(0.560,1)}19.21%,23.46%{transform:scale(0.600,1)}23.48%,23.72%{transform:scale(0.640,1)}23.74%,26.12%{transform:scale(0.680,1)}26.14%,26.39%{transform:scale(0.720,1)}26.41%,26.66%{transform:scale(0.760,1)}26.68%,26.92%{transform:scale(0.800,1)}26.94%,27.19%{transform:scale(0.840,1)}27.21%,28.26%{transform:scale(0.880,1)}28.28%,28.52%{transform:scale(0.920,1)}28.54%,31.46%{transform:scale(0.960,1)}31.48%,100%{transform:scale(1.000,1)}}.u.u0{fill:var(--c1);animation-name:u0;transform-origin:0.0px 0}@keyframes u1{31.72%{transform:scale(0.000,1)}31.74%,100%{transform:scale(1.000,1)}}.u.u1{fill:var(--c2);animation-name:u1;transform-origin:321.2px 0}@keyframes u2{39.19%{transform:scale(0.000,1)}39.21%,100%{transform:scale(1.000,1)}}.u.u2{fill:var(--c1);animation-name:u2;transform-origin:334.1px 0}@keyframes u3{39.46%{transform:scale(0.000,1)}39.48%,100%{transform:scale(1.000,1)}}.u.u3{fill:var(--c2);animation-name:u3;transform-origin:346.9px 0}@keyframes u4{41.32%{transform:scale(0.000,1)}41.34%,100%{transform:scale(1.000,1)}}.u.u4{fill:var(--c1);animation-name:u4;transform-origin:359.8px 0}@keyframes u5{41.59%{transform:scale(0.000,1)}41.61%,100%{transform:scale(1.000,1)}}.u.u5{fill:var(--c2);animation-name:u5;transform-origin:372.6px 0}@keyframes u6{44.52%{transform:scale(0.000,1)}44.54%,100%{transform:scale(1.000,1)}}.u.u6{fill:var(--c1);animation-name:u6;transform-origin:385.5px 0}@keyframes u7{44.79%{transform:scale(0.000,1)}44.81%,45.32%{transform:scale(0.042,1)}45.34%,45.86%{transform:scale(0.083,1)}45.88%,46.12%{transform:scale(0.125,1)}46.14%,46.39%{transform:scale(0.167,1)}46.41%,46.66%{transform:scale(0.208,1)}46.68%,46.92%{transform:scale(0.250,1)}46.94%,47.46%{transform:scale(0.292,1)}47.48%,48.52%{transform:scale(0.333,1)}48.54%,48.79%{transform:scale(0.375,1)}48.81%,49.06%{transform:scale(0.417,1)}49.08%,50.12%{transform:scale(0.458,1)}50.14%,50.39%{transform:scale(0.500,1)}50.41%,51.72%{transform:scale(0.542,1)}51.74%,51.99%{transform:scale(0.583,1)}52.01%,53.59%{transform:scale(0.625,1)}53.61%,58.12%{transform:scale(0.667,1)}58.14%,59.72%{transform:scale(0.708,1)}59.74%,60.52%{transform:scale(0.750,1)}60.54%,62.39%{transform:scale(0.792,1)}62.41%,62.66%{transform:scale(0.833,1)}62.68%,63.46%{transform:scale(0.875,1)}63.48%,64.26%{transform:scale(0.917,1)}64.28%,64.52%{transform:scale(0.958,1)}64.54%,100%{transform:scale(1.000,1)}}.u.u7{fill:var(--c2);animation-name:u7;transform-origin:398.3px 0}@keyframes u8{64.79%{transform:scale(0.000,1)}64.81%,66.92%{transform:scale(0.333,1)}66.94%,72.79%{transform:scale(0.667,1)}72.81%,100%{transform:scale(1.000,1)}}.u.u8{fill:var(--c3);animation-name:u8;transform-origin:706.7px 0}@keyframes u9{73.86%{transform:scale(0.000,1)}73.88%,74.66%{transform:scale(0.125,1)}74.68%,76.26%{transform:scale(0.250,1)}76.28%,81.06%{transform:scale(0.375,1)}81.08%,82.39%{transform:scale(0.500,1)}82.41%,84.26%{transform:scale(0.625,1)}84.28%,84.79%{transform:scale(0.750,1)}84.81%,85.06%{transform:scale(0.875,1)}85.08%,100%{transform:scale(1.000,1)}}.u.u9{fill:var(--c4);animation-name:u9;transform-origin:745.2px 0}.s{shape-rendering:geometricPrecision;fill:var(--cs);animation:none linear 37500ms infinite}@keyframes s0{0%,99.73%{transform:translate(0px,-16px)}0.27%{transform:translate(0px,0px)}4%{transform:translate(224px,0px)}5.07%{transform:translate(224px,64px)}7.47%,44.27%{transform:translate(368px,64px)}8.27%,43.47%{transform:translate(368px,112px)}9.07%,11.2%{transform:translate(416px,112px)}9.6%,49.6%{transform:translate(416px,80px)}9.87%{transform:translate(432px,80px)}10.13%{transform:translate(432px,64px)}10.4%,45.07%{transform:translate(416px,64px)}12.27%,38.4%,40.53%{transform:translate(480px,112px)}12.53%{transform:translate(480px,96px)}13.33%{transform:translate(528px,96px)}14.13%{transform:translate(528px,48px)}14.4%{transform:translate(512px,48px)}14.93%{transform:translate(512px,16px)}16%{transform:translate(576px,16px)}16.27%{transform:translate(576px,0px)}17.6%{transform:translate(496px,0px)}17.87%{transform:translate(496px,16px)}18.4%{transform:translate(464px,16px)}18.67%{transform:translate(464px,32px)}18.93%{transform:translate(480px,32px)}19.2%{transform:translate(480px,48px)}22.93%{transform:translate(704px,48px)}23.73%,61.07%{transform:translate(704px,96px)}24.8%{transform:translate(768px,96px)}25.07%{transform:translate(768px,112px)}25.87%,32.8%{transform:translate(816px,112px)}27.2%{transform:translate(816px,32px)}27.47%{transform:translate(832px,32px)}28%,29.6%{transform:translate(832px,0px)}28.53%{transform:translate(800px,0px)}28.8%{transform:translate(800px,-16px)}29.07%{transform:translate(816px,-16px)}29.33%{transform:translate(816px,0px)}30.93%{transform:translate(832px,80px)}31.47%{transform:translate(800px,80px)}31.73%{transform:translate(800px,64px)}32%{transform:translate(816px,64px)}38.93%{transform:translate(480px,80px)}39.2%{transform:translate(464px,80px)}39.47%,50.67%{transform:translate(464px,64px)}39.73%{transform:translate(480px,64px)}41.07%{transform:translate(448px,112px)}41.33%{transform:translate(448px,96px)}41.6%{transform:translate(464px,96px)}41.87%{transform:translate(464px,112px)}45.33%{transform:translate(416px,48px)}45.87%{transform:translate(448px,48px)}46.4%{transform:translate(448px,16px)}46.67%{transform:translate(432px,16px)}46.93%{transform:translate(432px,32px)}47.47%{transform:translate(400px,32px)}48%{transform:translate(400px,64px)}48.27%{transform:translate(384px,64px)}48.8%{transform:translate(384px,96px)}49.33%{transform:translate(416px,96px)}50.13%{transform:translate(448px,80px)}50.4%{transform:translate(448px,64px)}51.73%{transform:translate(464px,0px)}52%{transform:translate(480px,0px)}52.27%{transform:translate(480px,-16px)}53.33%{transform:translate(416px,-16px)}53.6%{transform:translate(416px,0px)}53.87%{transform:translate(432px,0px)}54.13%{transform:translate(432px,-16px)}57.87%{transform:translate(656px,-16px)}58.13%{transform:translate(656px,0px)}58.4%{transform:translate(640px,0px)}59.73%{transform:translate(640px,80px)}60.8%,67.2%{transform:translate(704px,80px)}62.67%{transform:translate(800px,96px)}63.47%,65.07%{transform:translate(800px,48px)}63.73%{transform:translate(816px,48px)}64.27%{transform:translate(816px,16px)}64.53%{transform:translate(800px,16px)}66.4%{transform:translate(720px,48px)}66.93%{transform:translate(720px,80px)}68.27%{transform:translate(704px,16px)}68.53%{transform:translate(688px,16px)}68.8%{transform:translate(688px,0px)}73.6%{transform:translate(400px,0px)}73.87%{transform:translate(400px,16px)}74.13%{transform:translate(384px,16px)}74.67%{transform:translate(384px,48px)}75.47%{transform:translate(432px,48px)}76.27%{transform:translate(432px,96px)}80.53%{transform:translate(688px,96px)}81.07%{transform:translate(688px,64px)}81.33%{transform:translate(704px,64px)}82.4%{transform:translate(704px,0px)}83.73%{transform:translate(784px,0px)}85.07%{transform:translate(784px,80px)}95.47%{transform:translate(160px,80px)}95.73%{transform:translate(160px,64px)}96.27%{transform:translate(128px,64px)}96.53%{transform:translate(128px,48px)}96.8%{transform:translate(112px,48px)}97.07%{transform:translate(112px,32px)}97.33%{transform:translate(96px,32px)}98.13%{transform:translate(96px,-16px)}}.s.s0{transform:translate(0px,-16px);animation-name:s0}@keyframes s1{0%,99.73%{transform:translate(16px,-16px)}0.27%{transform:translate(0px,-16px)}0.53%{transform:translate(0px,0px)}4.27%{transform:translate(224px,0px)}5.33%{transform:translate(224px,64px)}7.73%,44.53%{transform:translate(368px,64px)}8.53%,43.73%{transform:translate(368px,112px)}9.33%,11.47%{transform:translate(416px,112px)}9.87%,49.87%{transform:translate(416px,80px)}10.13%{transform:translate(432px,80px)}10.4%{transform:translate(432px,64px)}10.67%,45.33%{transform:translate(416px,64px)}12.53%,38.67%,40.8%{transform:translate(480px,112px)}12.8%{transform:translate(480px,96px)}13.6%{transform:translate(528px,96px)}14.4%{transform:translate(528px,48px)}14.67%{transform:translate(512px,48px)}15.2%{transform:translate(512px,16px)}16.27%{transform:translate(576px,16px)}16.53%{transform:translate(576px,0px)}17.87%{transform:translate(496px,0px)}18.13%{transform:translate(496px,16px)}18.67%{transform:translate(464px,16px)}18.93%{transform:translate(464px,32px)}19.2%{transform:translate(480px,32px)}19.47%{transform:translate(480px,48px)}23.2%{transform:translate(704px,48px)}24%,61.33%{transform:translate(704px,96px)}25.07%{transform:translate(768px,96px)}25.33%{transform:translate(768px,112px)}26.13%,33.07%{transform:translate(816px,112px)}27.47%{transform:translate(816px,32px)}27.73%{transform:translate(832px,32px)}28.27%,29.87%{transform:translate(832px,0px)}28.8%{transform:translate(800px,0px)}29.07%{transform:translate(800px,-16px)}29.33%{transform:translate(816px,-16px)}29.6%{transform:translate(816px,0px)}31.2%{transform:translate(832px,80px)}31.73%{transform:translate(800px,80px)}32%{transform:translate(800px,64px)}32.27%{transform:translate(816px,64px)}39.2%{transform:translate(480px,80px)}39.47%{transform:translate(464px,80px)}39.73%,50.93%{transform:translate(464px,64px)}40%{transform:translate(480px,64px)}41.33%{transform:translate(448px,112px)}41.6%{transform:translate(448px,96px)}41.87%{transform:translate(464px,96px)}42.13%{transform:translate(464px,112px)}45.6%{transform:translate(416px,48px)}46.13%{transform:translate(448px,48px)}46.67%{transform:translate(448px,16px)}46.93%{transform:translate(432px,16px)}47.2%{transform:translate(432px,32px)}47.73%{transform:translate(400px,32px)}48.27%{transform:translate(400px,64px)}48.53%{transform:translate(384px,64px)}49.07%{transform:translate(384px,96px)}49.6%{transform:translate(416px,96px)}50.4%{transform:translate(448px,80px)}50.67%{transform:translate(448px,64px)}52%{transform:translate(464px,0px)}52.27%{transform:translate(480px,0px)}52.53%{transform:translate(480px,-16px)}53.6%{transform:translate(416px,-16px)}53.87%{transform:translate(416px,0px)}54.13%{transform:translate(432px,0px)}54.4%{transform:translate(432px,-16px)}58.13%{transform:translate(656px,-16px)}58.4%{transform:translate(656px,0px)}58.67%{transform:translate(640px,0px)}60%{transform:translate(640px,80px)}61.07%,67.47%{transform:translate(704px,80px)}62.93%{transform:translate(800px,96px)}63.73%,65.33%{transform:translate(800px,48px)}64%{transform:translate(816px,48px)}64.53%{transform:translate(816px,16px)}64.8%{transform:translate(800px,16px)}66.67%{transform:translate(720px,48px)}67.2%{transform:translate(720px,80px)}68.53%{transform:translate(704px,16px)}68.8%{transform:translate(688px,16px)}69.07%{transform:translate(688px,0px)}73.87%{transform:translate(400px,0px)}74.13%{transform:translate(400px,16px)}74.4%{transform:translate(384px,16px)}74.93%{transform:translate(384px,48px)}75.73%{transform:translate(432px,48px)}76.53%{transform:translate(432px,96px)}80.8%{transform:translate(688px,96px)}81.33%{transform:translate(688px,64px)}81.6%{transform:translate(704px,64px)}82.67%{transform:translate(704px,0px)}84%{transform:translate(784px,0px)}85.33%{transform:translate(784px,80px)}95.73%{transform:translate(160px,80px)}96%{transform:translate(160px,64px)}96.53%{transform:translate(128px,64px)}96.8%{transform:translate(128px,48px)}97.07%{transform:translate(112px,48px)}97.33%{transform:translate(112px,32px)}97.6%{transform:translate(96px,32px)}98.4%{transform:translate(96px,-16px)}}.s.s1{transform:translate(16px,-16px);animation-name:s1}@keyframes s2{0%,99.73%{transform:translate(32px,-16px)}0.53%{transform:translate(0px,-16px)}0.8%{transform:translate(0px,0px)}4.53%{transform:translate(224px,0px)}5.6%{transform:translate(224px,64px)}8%,44.8%{transform:translate(368px,64px)}8.8%,44%{transform:translate(368px,112px)}9.6%,11.73%{transform:translate(416px,112px)}10.13%,50.13%{transform:translate(416px,80px)}10.4%{transform:translate(432px,80px)}10.67%{transform:translate(432px,64px)}10.93%,45.6%{transform:translate(416px,64px)}12.8%,38.93%,41.07%{transform:translate(480px,112px)}13.07%{transform:translate(480px,96px)}13.87%{transform:translate(528px,96px)}14.67%{transform:translate(528px,48px)}14.93%{transform:translate(512px,48px)}15.47%{transform:translate(512px,16px)}16.53%{transform:translate(576px,16px)}16.8%{transform:translate(576px,0px)}18.13%{transform:translate(496px,0px)}18.4%{transform:translate(496px,16px)}18.93%{transform:translate(464px,16px)}19.2%{transform:translate(464px,32px)}19.47%{transform:translate(480px,32px)}19.73%{transform:translate(480px,48px)}23.47%{transform:translate(704px,48px)}24.27%,61.6%{transform:translate(704px,96px)}25.33%{transform:translate(768px,96px)}25.6%{transform:translate(768px,112px)}26.4%,33.33%{transform:translate(816px,112px)}27.73%{transform:translate(816px,32px)}28%{transform:translate(832px,32px)}28.53%,30.13%{transform:translate(832px,0px)}29.07%{transform:translate(800px,0px)}29.33%{transform:translate(800px,-16px)}29.6%{transform:translate(816px,-16px)}29.87%{transform:translate(816px,0px)}31.47%{transform:translate(832px,80px)}32%{transform:translate(800px,80px)}32.27%{transform:translate(800px,64px)}32.53%{transform:translate(816px,64px)}39.47%{transform:translate(480px,80px)}39.73%{transform:translate(464px,80px)}40%,51.2%{transform:translate(464px,64px)}40.27%{transform:translate(480px,64px)}41.6%{transform:translate(448px,112px)}41.87%{transform:translate(448px,96px)}42.13%{transform:translate(464px,96px)}42.4%{transform:translate(464px,112px)}45.87%{transform:translate(416px,48px)}46.4%{transform:translate(448px,48px)}46.93%{transform:translate(448px,16px)}47.2%{transform:translate(432px,16px)}47.47%{transform:translate(432px,32px)}48%{transform:translate(400px,32px)}48.53%{transform:translate(400px,64px)}48.8%{transform:translate(384px,64px)}49.33%{transform:translate(384px,96px)}49.87%{transform:translate(416px,96px)}50.67%{transform:translate(448px,80px)}50.93%{transform:translate(448px,64px)}52.27%{transform:translate(464px,0px)}52.53%{transform:translate(480px,0px)}52.8%{transform:translate(480px,-16px)}53.87%{transform:translate(416px,-16px)}54.13%{transform:translate(416px,0px)}54.4%{transform:translate(432px,0px)}54.67%{transform:translate(432px,-16px)}58.4%{transform:translate(656px,-16px)}58.67%{transform:translate(656px,0px)}58.93%{transform:translate(640px,0px)}60.27%{transform:translate(640px,80px)}61.33%,67.73%{transform:translate(704px,80px)}63.2%{transform:translate(800px,96px)}64%,65.6%{transform:translate(800px,48px)}64.27%{transform:translate(816px,48px)}64.8%{transform:translate(816px,16px)}65.07%{transform:translate(800px,16px)}66.93%{transform:translate(720px,48px)}67.47%{transform:translate(720px,80px)}68.8%{transform:translate(704px,16px)}69.07%{transform:translate(688px,16px)}69.33%{transform:translate(688px,0px)}74.13%{transform:translate(400px,0px)}74.4%{transform:translate(400px,16px)}74.67%{transform:translate(384px,16px)}75.2%{transform:translate(384px,48px)}76%{transform:translate(432px,48px)}76.8%{transform:translate(432px,96px)}81.07%{transform:translate(688px,96px)}81.6%{transform:translate(688px,64px)}81.87%{transform:translate(704px,64px)}82.93%{transform:translate(704px,0px)}84.27%{transform:translate(784px,0px)}85.6%{transform:translate(784px,80px)}96%{transform:translate(160px,80px)}96.27%{transform:translate(160px,64px)}96.8%{transform:translate(128px,64px)}97.07%{transform:translate(128px,48px)}97.33%{transform:translate(112px,48px)}97.6%{transform:translate(112px,32px)}97.87%{transform:translate(96px,32px)}98.67%{transform:translate(96px,-16px)}}.s.s2{transform:translate(32px,-16px);animation-name:s2}@keyframes s3{0%,99.73%{transform:translate(48px,-16px)}0.8%{transform:translate(0px,-16px)}1.07%{transform:translate(0px,0px)}4.8%{transform:translate(224px,0px)}5.87%{transform:translate(224px,64px)}8.27%,45.07%{transform:translate(368px,64px)}9.07%,44.27%{transform:translate(368px,112px)}9.87%,12%{transform:translate(416px,112px)}10.4%,50.4%{transform:translate(416px,80px)}10.67%{transform:translate(432px,80px)}10.93%{transform:translate(432px,64px)}11.2%,45.87%{transform:translate(416px,64px)}13.07%,39.2%,41.33%{transform:translate(480px,112px)}13.33%{transform:translate(480px,96px)}14.13%{transform:translate(528px,96px)}14.93%{transform:translate(528px,48px)}15.2%{transform:translate(512px,48px)}15.73%{transform:translate(512px,16px)}16.8%{transform:translate(576px,16px)}17.07%{transform:translate(576px,0px)}18.4%{transform:translate(496px,0px)}18.67%{transform:translate(496px,16px)}19.2%{transform:translate(464px,16px)}19.47%{transform:translate(464px,32px)}19.73%{transform:translate(480px,32px)}20%{transform:translate(480px,48px)}23.73%{transform:translate(704px,48px)}24.53%,61.87%{transform:translate(704px,96px)}25.6%{transform:translate(768px,96px)}25.87%{transform:translate(768px,112px)}26.67%,33.6%{transform:translate(816px,112px)}28%{transform:translate(816px,32px)}28.27%{transform:translate(832px,32px)}28.8%,30.4%{transform:translate(832px,0px)}29.33%{transform:translate(800px,0px)}29.6%{transform:translate(800px,-16px)}29.87%{transform:translate(816px,-16px)}30.13%{transform:translate(816px,0px)}31.73%{transform:translate(832px,80px)}32.27%{transform:translate(800px,80px)}32.53%{transform:translate(800px,64px)}32.8%{transform:translate(816px,64px)}39.73%{transform:translate(480px,80px)}40%{transform:translate(464px,80px)}40.27%,51.47%{transform:translate(464px,64px)}40.53%{transform:translate(480px,64px)}41.87%{transform:translate(448px,112px)}42.13%{transform:translate(448px,96px)}42.4%{transform:translate(464px,96px)}42.67%{transform:translate(464px,112px)}46.13%{transform:translate(416px,48px)}46.67%{transform:translate(448px,48px)}47.2%{transform:translate(448px,16px)}47.47%{transform:translate(432px,16px)}47.73%{transform:translate(432px,32px)}48.27%{transform:translate(400px,32px)}48.8%{transform:translate(400px,64px)}49.07%{transform:translate(384px,64px)}49.6%{transform:translate(384px,96px)}50.13%{transform:translate(416px,96px)}50.93%{transform:translate(448px,80px)}51.2%{transform:translate(448px,64px)}52.53%{transform:translate(464px,0px)}52.8%{transform:translate(480px,0px)}53.07%{transform:translate(480px,-16px)}54.13%{transform:translate(416px,-16px)}54.4%{transform:translate(416px,0px)}54.67%{transform:translate(432px,0px)}54.93%{transform:translate(432px,-16px)}58.67%{transform:translate(656px,-16px)}58.93%{transform:translate(656px,0px)}59.2%{transform:translate(640px,0px)}60.53%{transform:translate(640px,80px)}61.6%,68%{transform:translate(704px,80px)}63.47%{transform:translate(800px,96px)}64.27%,65.87%{transform:translate(800px,48px)}64.53%{transform:translate(816px,48px)}65.07%{transform:translate(816px,16px)}65.33%{transform:translate(800px,16px)}67.2%{transform:translate(720px,48px)}67.73%{transform:translate(720px,80px)}69.07%{transform:translate(704px,16px)}69.33%{transform:translate(688px,16px)}69.6%{transform:translate(688px,0px)}74.4%{transform:translate(400px,0px)}74.67%{transform:translate(400px,16px)}74.93%{transform:translate(384px,16px)}75.47%{transform:translate(384px,48px)}76.27%{transform:translate(432px,48px)}77.07%{transform:translate(432px,96px)}81.33%{transform:translate(688px,96px)}81.87%{transform:translate(688px,64px)}82.13%{transform:translate(704px,64px)}83.2%{transform:translate(704px,0px)}84.53%{transform:translate(784px,0px)}85.87%{transform:translate(784px,80px)}96.27%{transform:translate(160px,80px)}96.53%{transform:translate(160px,64px)}97.07%{transform:translate(128px,64px)}97.33%{transform:translate(128px,48px)}97.6%{transform:translate(112px,48px)}97.87%{transform:translate(112px,32px)}98.13%{transform:translate(96px,32px)}98.93%{transform:translate(96px,-16px)}}.s.s3{transform:translate(48px,-16px);animation-name:s3}</style><rect class="c" x="2" y="2" rx="2" ry="2"/><rect class="c" x="2" y="18" rx="2" ry="2"/><rect class="c" x="2" y="34" rx="2" ry="2"/><rect class="c" x="2" y="50" rx="2" ry="2"/><rect class="c" x="2" y="66" rx="2" ry="2"/><rect class="c" x="2" y="82" rx="2" ry="2"/><rect class="c" x="2" y="98" rx="2" ry="2"/><rect class="c" x="18" y="2" rx="2" ry="2"/><rect class="c" x="18" y="18" rx="2" ry="2"/><rect class="c" x="18" y="34" rx="2" ry="2"/><rect class="c" x="18" y="50" rx="2" ry="2"/><rect class="c" x="18" y="66" rx="2" ry="2"/><rect class="c" x="18" y="82" rx="2" ry="2"/><rect class="c" x="18" y="98" rx="2" ry="2"/><rect class="c" x="34" y="2" rx="2" ry="2"/><rect class="c" x="34" y="18" rx="2" ry="2"/><rect class="c" x="34" y="34" rx="2" ry="2"/><rect class="c" x="34" y="50" rx="2" ry="2"/><rect class="c" x="34" y="66" rx="2" ry="2"/><rect class="c" x="34" y="82" rx="2" ry="2"/><rect class="c" x="34" y="98" rx="2" ry="2"/><rect class="c" x="50" y="2" rx="2" ry="2"/><rect class="c" x="50" y="18" rx="2" ry="2"/><rect class="c" x="50" y="34" rx="2" ry="2"/><rect class="c" x="50" y="50" rx="2" ry="2"/><rect class="c" x="50" y="66" rx="2" ry="2"/><rect class="c" x="50" y="82" rx="2" ry="2"/><rect class="c" x="50" y="98" rx="2" ry="2"/><rect class="c" x="66" y="2" rx="2" ry="2"/><rect class="c" x="66" y="18" rx="2" ry="2"/><rect class="c" x="66" y="34" rx="2" ry="2"/><rect class="c" x="66" y="50" rx="2" ry="2"/><rect class="c" x="66" y="66" rx="2" ry="2"/><rect class="c" x="66" y="82" rx="2" ry="2"/><rect class="c" x="66" y="98" rx="2" ry="2"/><rect class="c" x="82" y="2" rx="2" ry="2"/><rect class="c" x="82" y="18" rx="2" ry="2"/><rect class="c" x="82" y="34" rx="2" ry="2"/><rect class="c" x="82" y="50" rx="2" ry="2"/><rect class="c" x="82" y="66" rx="2" ry="2"/><rect class="c" x="82" y="82" rx="2" ry="2"/><rect class="c" x="82" y="98" rx="2" ry="2"/><rect class="c" x="98" y="2" rx="2" ry="2"/><rect class="c" x="98" y="18" rx="2" ry="2"/><rect class="c" x="98" y="34" rx="2" ry="2"/><rect class="c" x="98" y="50" rx="2" ry="2"/><rect class="c" x="98" y="66" rx="2" ry="2"/><rect class="c" x="98" y="82" rx="2" ry="2"/><rect class="c" x="98" y="98" rx="2" ry="2"/><rect class="c" x="114" y="2" rx="2" ry="2"/><rect class="c" x="114" y="18" rx="2" ry="2"/><rect class="c" x="114" y="34" rx="2" ry="2"/><rect class="c" x="114" y="50" rx="2" ry="2"/><rect class="c" x="114" y="66" rx="2" ry="2"/><rect class="c" x="114" y="82" rx="2" ry="2"/><rect class="c" x="114" y="98" rx="2" ry="2"/><rect class="c" x="130" y="2" rx="2" ry="2"/><rect class="c" x="130" y="18" rx="2" ry="2"/><rect class="c" x="130" y="34" rx="2" ry="2"/><rect class="c" x="130" y="50" rx="2" ry="2"/><rect class="c" x="130" y="66" rx="2" ry="2"/><rect class="c" x="130" y="82" rx="2" ry="2"/><rect class="c" x="130" y="98" rx="2" ry="2"/><rect class="c" x="146" y="2" rx="2" ry="2"/><rect class="c" x="146" y="18" rx="2" ry="2"/><rect class="c" x="146" y="34" rx="2" ry="2"/><rect class="c" x="146" y="50" rx="2" ry="2"/><rect class="c" x="146" y="66" rx="2" ry="2"/><rect class="c" x="146" y="82" rx="2" ry="2"/><rect class="c" x="146" y="98" rx="2" ry="2"/><rect class="c" x="162" y="2" rx="2" ry="2"/><rect class="c" x="162" y="18" rx="2" ry="2"/><rect class="c" x="162" y="34" rx="2" ry="2"/><rect class="c" x="162" y="50" rx="2" ry="2"/><rect class="c" x="162" y="66" rx="2" ry="2"/><rect class="c" x="162" y="82" rx="2" ry="2"/><rect class="c" x="162" y="98" rx="2" ry="2"/><rect class="c" x="178" y="2" rx="2" ry="2"/><rect class="c" x="178" y="18" rx="2" ry="2"/><rect class="c" x="178" y="34" rx="2" ry="2"/><rect class="c" x="178" y="50" rx="2" ry="2"/><rect class="c" x="178" y="66" rx="2" ry="2"/><rect class="c" x="178" y="82" rx="2" ry="2"/><rect class="c" x="178" y="98" rx="2" ry="2"/><rect class="c" x="194" y="2" rx="2" ry="2"/><rect class="c" x="194" y="18" rx="2" ry="2"/><rect class="c" x="194" y="34" rx="2" ry="2"/><rect class="c" x="194" y="50" rx="2" ry="2"/><rect class="c" x="194" y="66" rx="2" ry="2"/><rect class="c" x="194" y="82" rx="2" ry="2"/><rect class="c" x="194" y="98" rx="2" ry="2"/><rect class="c" x="210" y="2" rx="2" ry="2"/><rect class="c" x="210" y="18" rx="2" ry="2"/><rect class="c" x="210" y="34" rx="2" ry="2"/><rect class="c" x="210" y="50" rx="2" ry="2"/><rect class="c" x="210" y="66" rx="2" ry="2"/><rect class="c" x="210" y="82" rx="2" ry="2"/><rect class="c" x="210" y="98" rx="2" ry="2"/><rect class="c" x="226" y="2" rx="2" ry="2"/><rect class="c" x="226" y="18" rx="2" ry="2"/><rect class="c" x="226" y="34" rx="2" ry="2"/><rect class="c" x="226" y="50" rx="2" ry="2"/><rect class="c c0" x="226" y="66" rx="2" ry="2"/><rect class="c" x="226" y="82" rx="2" ry="2"/><rect class="c" x="226" y="98" rx="2" ry="2"/><rect class="c" x="242" y="2" rx="2" ry="2"/><rect class="c" x="242" y="18" rx="2" ry="2"/><rect class="c" x="242" y="34" rx="2" ry="2"/><rect class="c" x="242" y="50" rx="2" ry="2"/><rect class="c" x="242" y="66" rx="2" ry="2"/><rect class="c" x="242" y="82" rx="2" ry="2"/><rect class="c" x="242" y="98" rx="2" ry="2"/><rect class="c" x="258" y="2" rx="2" ry="2"/><rect class="c" x="258" y="18" rx="2" ry="2"/><rect class="c" x="258" y="34" rx="2" ry="2"/><rect class="c" x="258" y="50" rx="2" ry="2"/><rect class="c" x="258" y="66" rx="2" ry="2"/><rect class="c" x="258" y="82" rx="2" ry="2"/><rect class="c" x="258" y="98" rx="2" ry="2"/><rect class="c" x="274" y="2" rx="2" ry="2"/><rect class="c" x="274" y="18" rx="2" ry="2"/><rect class="c" x="274" y="34" rx="2" ry="2"/><rect class="c" x="274" y="50" rx="2" ry="2"/><rect class="c" x="274" y="66" rx="2" ry="2"/><rect class="c" x="274" y="82" rx="2" ry="2"/><rect class="c" x="274" y="98" rx="2" ry="2"/><rect class="c" x="290" y="2" rx="2" ry="2"/><rect class="c" x="290" y="18" rx="2" ry="2"/><rect class="c" x="290" y="34" rx="2" ry="2"/><rect class="c" x="290" y="50" rx="2" ry="2"/><rect class="c" x="290" y="66" rx="2" ry="2"/><rect class="c" x="290" y="82" rx="2" ry="2"/><rect class="c" x="290" y="98" rx="2" ry="2"/><rect class="c" x="306" y="2" rx="2" ry="2"/><rect class="c" x="306" y="18" rx="2" ry="2"/><rect class="c" x="306" y="34" rx="2" ry="2"/><rect class="c" x="306" y="50" rx="2" ry="2"/><rect class="c" x="306" y="66" rx="2" ry="2"/><rect class="c" x="306" y="82" rx="2" ry="2"/><rect class="c" x="306" y="98" rx="2" ry="2"/><rect class="c" x="322" y="2" rx="2" ry="2"/><rect class="c" x="322" y="18" rx="2" ry="2"/><rect class="c" x="322" y="34" rx="2" ry="2"/><rect class="c" x="322" y="50" rx="2" ry="2"/><rect class="c" x="322" y="66" rx="2" ry="2"/><rect class="c" x="322" y="82" rx="2" ry="2"/><rect class="c" x="322" y="98" rx="2" ry="2"/><rect class="c" x="338" y="2" rx="2" ry="2"/><rect class="c" x="338" y="18" rx="2" ry="2"/><rect class="c" x="338" y="34" rx="2" ry="2"/><rect class="c" x="338" y="50" rx="2" ry="2"/><rect class="c" x="338" y="66" rx="2" ry="2"/><rect class="c" x="338" y="82" rx="2" ry="2"/><rect class="c" x="338" y="98" rx="2" ry="2"/><rect class="c" x="354" y="2" rx="2" ry="2"/><rect class="c" x="354" y="18" rx="2" ry="2"/><rect class="c" x="354" y="34" rx="2" ry="2"/><rect class="c" x="354" y="50" rx="2" ry="2"/><rect class="c" x="354" y="66" rx="2" ry="2"/><rect class="c" x="354" y="82" rx="2" ry="2"/><rect class="c" x="354" y="98" rx="2" ry="2"/><rect class="c" x="370" y="2" rx="2" ry="2"/><rect class="c" x="370" y="18" rx="2" ry="2"/><rect class="c" x="370" y="34" rx="2" ry="2"/><rect class="c" x="370" y="50" rx="2" ry="2"/><rect class="c" x="370" y="66" rx="2" ry="2"/><rect class="c" x="370" y="82" rx="2" ry="2"/><rect class="c" x="370" y="98" rx="2" ry="2"/><rect class="c" x="386" y="2" rx="2" ry="2"/><rect class="c" x="386" y="18" rx="2" ry="2"/><rect class="c" x="386" y="34" rx="2" ry="2"/><rect class="c c1" x="386" y="50" rx="2" ry="2"/><rect class="c c2" x="386" y="66" rx="2" ry="2"/><rect class="c c3" x="386" y="82" rx="2" ry="2"/><rect class="c c4" x="386" y="98" rx="2" ry="2"/><rect class="c" x="402" y="2" rx="2" ry="2"/><rect class="c c5" x="402" y="18" rx="2" ry="2"/><rect class="c c6" x="402" y="34" rx="2" ry="2"/><rect class="c" x="402" y="50" rx="2" ry="2"/><rect class="c c7" x="402" y="66" rx="2" ry="2"/><rect class="c" x="402" y="82" rx="2" ry="2"/><rect class="c c8" x="402" y="98" rx="2" ry="2"/><rect class="c c9" x="418" y="2" rx="2" ry="2"/><rect class="c" x="418" y="18" rx="2" ry="2"/><rect class="c" x="418" y="34" rx="2" ry="2"/><rect class="c ca" x="418" y="50" rx="2" ry="2"/><rect class="c" x="418" y="66" rx="2" ry="2"/><rect class="c" x="418" y="82" rx="2" ry="2"/><rect class="c" x="418" y="98" rx="2" ry="2"/><rect class="c" x="434" y="2" rx="2" ry="2"/><rect class="c cb" x="434" y="18" rx="2" ry="2"/><rect class="c cc" x="434" y="34" rx="2" ry="2"/><rect class="c" x="434" y="50" rx="2" ry="2"/><rect class="c cd" x="434" y="66" rx="2" ry="2"/><rect class="c" x="434" y="82" rx="2" ry="2"/><rect class="c ce" x="434" y="98" rx="2" ry="2"/><rect class="c cf" x="450" y="2" rx="2" ry="2"/><rect class="c cg" x="450" y="18" rx="2" ry="2"/><rect class="c ch" x="450" y="34" rx="2" ry="2"/><rect class="c ci" x="450" y="50" rx="2" ry="2"/><rect class="c cj" x="450" y="66" rx="2" ry="2"/><rect class="c ck" x="450" y="82" rx="2" ry="2"/><rect class="c cl" x="450" y="98" rx="2" ry="2"/><rect class="c cm" x="466" y="2" rx="2" ry="2"/><rect class="c cn" x="466" y="18" rx="2" ry="2"/><rect class="c co" x="466" y="34" rx="2" ry="2"/><rect class="c" x="466" y="50" rx="2" ry="2"/><rect class="c cp" x="466" y="66" rx="2" ry="2"/><rect class="c cq" x="466" y="82" rx="2" ry="2"/><rect class="c cr" x="466" y="98" rx="2" ry="2"/><rect class="c cs" x="482" y="2" rx="2" ry="2"/><rect class="c" x="482" y="18" rx="2" ry="2"/><rect class="c ct" x="482" y="34" rx="2" ry="2"/><rect class="c cu" x="482" y="50" rx="2" ry="2"/><rect class="c" x="482" y="66" rx="2" ry="2"/><rect class="c" x="482" y="82" rx="2" ry="2"/><rect class="c cv" x="482" y="98" rx="2" ry="2"/><rect class="c cw" x="498" y="2" rx="2" ry="2"/><rect class="c" x="498" y="18" rx="2" ry="2"/><rect class="c" x="498" y="34" rx="2" ry="2"/><rect class="c" x="498" y="50" rx="2" ry="2"/><rect class="c" x="498" y="66" rx="2" ry="2"/><rect class="c" x="498" y="82" rx="2" ry="2"/><rect class="c" x="498" y="98" rx="2" ry="2"/><rect class="c" x="514" y="2" rx="2" ry="2"/><rect class="c cx" x="514" y="18" rx="2" ry="2"/><rect class="c cy" x="514" y="34" rx="2" ry="2"/><rect class="c cz" x="514" y="50" rx="2" ry="2"/><rect class="c" x="514" y="66" rx="2" ry="2"/><rect class="c" x="514" y="82" rx="2" ry="2"/><rect class="c" x="514" y="98" rx="2" ry="2"/><rect class="c" x="530" y="2" rx="2" ry="2"/><rect class="c" x="530" y="18" rx="2" ry="2"/><rect class="c" x="530" y="34" rx="2" ry="2"/><rect class="c" x="530" y="50" rx="2" ry="2"/><rect class="c" x="530" y="66" rx="2" ry="2"/><rect class="c c10" x="530" y="82" rx="2" ry="2"/><rect class="c c11" x="530" y="98" rx="2" ry="2"/><rect class="c" x="546" y="2" rx="2" ry="2"/><rect class="c c12" x="546" y="18" rx="2" ry="2"/><rect class="c" x="546" y="34" rx="2" ry="2"/><rect class="c" x="546" y="50" rx="2" ry="2"/><rect class="c" x="546" y="66" rx="2" ry="2"/><rect class="c" x="546" y="82" rx="2" ry="2"/><rect class="c" x="546" y="98" rx="2" ry="2"/><rect class="c" x="562" y="2" rx="2" ry="2"/><rect class="c" x="562" y="18" rx="2" ry="2"/><rect class="c" x="562" y="34" rx="2" ry="2"/><rect class="c" x="562" y="50" rx="2" ry="2"/><rect class="c" x="562" y="66" rx="2" ry="2"/><rect class="c" x="562" y="82" rx="2" ry="2"/><rect class="c" x="562" y="98" rx="2" ry="2"/><rect class="c c13" x="578" y="2" rx="2" ry="2"/><rect class="c" x="578" y="18" rx="2" ry="2"/><rect class="c" x="578" y="34" rx="2" ry="2"/><rect class="c" x="578" y="50" rx="2" ry="2"/><rect class="c" x="578" y="66" rx="2" ry="2"/><rect class="c" x="578" y="82" rx="2" ry="2"/><rect class="c" x="578" y="98" rx="2" ry="2"/><rect class="c" x="594" y="2" rx="2" ry="2"/><rect class="c" x="594" y="18" rx="2" ry="2"/><rect class="c" x="594" y="34" rx="2" ry="2"/><rect class="c" x="594" y="50" rx="2" ry="2"/><rect class="c" x="594" y="66" rx="2" ry="2"/><rect class="c" x="594" y="82" rx="2" ry="2"/><rect class="c" x="594" y="98" rx="2" ry="2"/><rect class="c" x="610" y="2" rx="2" ry="2"/><rect class="c" x="610" y="18" rx="2" ry="2"/><rect class="c" x="610" y="34" rx="2" ry="2"/><rect class="c" x="610" y="50" rx="2" ry="2"/><rect class="c" x="610" y="66" rx="2" ry="2"/><rect class="c" x="610" y="82" rx="2" ry="2"/><rect class="c" x="610" y="98" rx="2" ry="2"/><rect class="c" x="626" y="2" rx="2" ry="2"/><rect class="c" x="626" y="18" rx="2" ry="2"/><rect class="c" x="626" y="34" rx="2" ry="2"/><rect class="c" x="626" y="50" rx="2" ry="2"/><rect class="c" x="626" y="66" rx="2" ry="2"/><rect class="c" x="626" y="82" rx="2" ry="2"/><rect class="c" x="626" y="98" rx="2" ry="2"/><rect class="c" x="642" y="2" rx="2" ry="2"/><rect class="c" x="642" y="18" rx="2" ry="2"/><rect class="c" x="642" y="34" rx="2" ry="2"/><rect class="c" x="642" y="50" rx="2" ry="2"/><rect class="c" x="642" y="66" rx="2" ry="2"/><rect class="c c14" x="642" y="82" rx="2" ry="2"/><rect class="c" x="642" y="98" rx="2" ry="2"/><rect class="c c15" x="658" y="2" rx="2" ry="2"/><rect class="c" x="658" y="18" rx="2" ry="2"/><rect class="c" x="658" y="34" rx="2" ry="2"/><rect class="c" x="658" y="50" rx="2" ry="2"/><rect class="c" x="658" y="66" rx="2" ry="2"/><rect class="c" x="658" y="82" rx="2" ry="2"/><rect class="c" x="658" y="98" rx="2" ry="2"/><rect class="c" x="674" y="2" rx="2" ry="2"/><rect class="c" x="674" y="18" rx="2" ry="2"/><rect class="c" x="674" y="34" rx="2" ry="2"/><rect class="c" x="674" y="50" rx="2" ry="2"/><rect class="c" x="674" y="66" rx="2" ry="2"/><rect class="c" x="674" y="82" rx="2" ry="2"/><rect class="c" x="674" y="98" rx="2" ry="2"/><rect class="c" x="690" y="2" rx="2" ry="2"/><rect class="c" x="690" y="18" rx="2" ry="2"/><rect class="c" x="690" y="34" rx="2" ry="2"/><rect class="c" x="690" y="50" rx="2" ry="2"/><rect class="c c16" x="690" y="66" rx="2" ry="2"/><rect class="c c17" x="690" y="82" rx="2" ry="2"/><rect class="c" x="690" y="98" rx="2" ry="2"/><rect class="c c18" x="706" y="2" rx="2" ry="2"/><rect class="c" x="706" y="18" rx="2" ry="2"/><rect class="c" x="706" y="34" rx="2" ry="2"/><rect class="c" x="706" y="50" rx="2" ry="2"/><rect class="c" x="706" y="66" rx="2" ry="2"/><rect class="c c19" x="706" y="82" rx="2" ry="2"/><rect class="c c1a" x="706" y="98" rx="2" ry="2"/><rect class="c" x="722" y="2" rx="2" ry="2"/><rect class="c" x="722" y="18" rx="2" ry="2"/><rect class="c" x="722" y="34" rx="2" ry="2"/><rect class="c" x="722" y="50" rx="2" ry="2"/><rect class="c" x="722" y="66" rx="2" ry="2"/><rect class="c c1b" x="722" y="82" rx="2" ry="2"/><rect class="c" x="722" y="98" rx="2" ry="2"/><rect class="c" x="738" y="2" rx="2" ry="2"/><rect class="c" x="738" y="18" rx="2" ry="2"/><rect class="c" x="738" y="34" rx="2" ry="2"/><rect class="c" x="738" y="50" rx="2" ry="2"/><rect class="c" x="738" y="66" rx="2" ry="2"/><rect class="c" x="738" y="82" rx="2" ry="2"/><rect class="c" x="738" y="98" rx="2" ry="2"/><rect class="c" x="754" y="2" rx="2" ry="2"/><rect class="c" x="754" y="18" rx="2" ry="2"/><rect class="c" x="754" y="34" rx="2" ry="2"/><rect class="c" x="754" y="50" rx="2" ry="2"/><rect class="c" x="754" y="66" rx="2" ry="2"/><rect class="c" x="754" y="82" rx="2" ry="2"/><rect class="c" x="754" y="98" rx="2" ry="2"/><rect class="c" x="770" y="2" rx="2" ry="2"/><rect class="c" x="770" y="18" rx="2" ry="2"/><rect class="c" x="770" y="34" rx="2" ry="2"/><rect class="c" x="770" y="50" rx="2" ry="2"/><rect class="c" x="770" y="66" rx="2" ry="2"/><rect class="c" x="770" y="82" rx="2" ry="2"/><rect class="c" x="770" y="98" rx="2" ry="2"/><rect class="c" x="786" y="2" rx="2" ry="2"/><rect class="c" x="786" y="18" rx="2" ry="2"/><rect class="c c1c" x="786" y="34" rx="2" ry="2"/><rect class="c" x="786" y="50" rx="2" ry="2"/><rect class="c c1d" x="786" y="66" rx="2" ry="2"/><rect class="c c1e" x="786" y="82" rx="2" ry="2"/><rect class="c c1f" x="786" y="98" rx="2" ry="2"/><rect class="c c1g" x="802" y="2" rx="2" ry="2"/><rect class="c c1h" x="802" y="18" rx="2" ry="2"/><rect class="c c1i" x="802" y="34" rx="2" ry="2"/><rect class="c c1j" x="802" y="50" rx="2" ry="2"/><rect class="c c1k" x="802" y="66" rx="2" ry="2"/><rect class="c c1l" x="802" y="82" rx="2" ry="2"/><rect class="c c1m" x="802" y="98" rx="2" ry="2"/><rect class="c c1n" x="818" y="2" rx="2" ry="2"/><rect class="c c1o" x="818" y="18" rx="2" ry="2"/><rect class="c c1p" x="818" y="34" rx="2" ry="2"/><rect class="c c1q" x="818" y="50" rx="2" ry="2"/><rect class="c c1r" x="818" y="66" rx="2" ry="2"/><rect class="c c1s" x="818" y="82" rx="2" ry="2"/><rect class="c c1t" x="818" y="98" rx="2" ry="2"/><rect class="c" x="834" y="2" rx="2" ry="2"/><rect class="c" x="834" y="18" rx="2" ry="2"/><rect class="u u0" height="12" width="321.8" x="0.0" y="144"/><rect class="u u1" height="12" width="13.4" x="321.2" y="144"/><rect class="u u2" height="12" width="13.4" x="334.1" y="144"/><rect class="u u3" height="12" width="13.4" x="346.9" y="144"/><rect class="u u4" height="12" width="13.4" x="359.8" y="144"/><rect class="u u5" height="12" width="13.4" x="372.6" y="144"/><rect class="u u6" height="12" width="13.4" x="385.5" y="144"/><rect class="u u7" height="12" width="309.0" x="398.3" y="144"/><rect class="u u8" height="12" width="39.1" x="706.7" y="144"/><rect class="u u9" height="12" width="103.4" x="745.2" y="144"/><rect class="s s0" x="0.8" y="0.8" width="14.4" height="14.4" rx="4.5" ry="4.5"/><rect class="s s1" x="1.8" y="1.8" width="12.3" height="12.3" rx="4.1" ry="4.1"/><rect class="s s2" x="2.6" y="2.6" width="10.8" height="10.8" rx="3.6" ry="3.6"/><rect class="s s3" x="3.0" y="3.0" width="9.9" height="9.9" rx="3.3" ry="3.3"/></svg>